<?xml version="1.0" encoding="UTF-8"?>
<svg id="Layer_2" data-name="Layer 2" xmlns="http://www.w3.org/2000/svg" viewBox="0 0 415.99 433.9">
  <defs>
    <style>
      .cls-1 {
        fill: #ffcf02;
      }
    </style>
  </defs>
  <g id="Calque_1" data-name="Calque 1">
    <path class="cls-1" d="M405.91,157.74c-27.14,8.24-54.29,16.49-83.32,25.31,3.55,6.15,5.51,9.58,7.51,12.99,17.26,29.49,31.3,60.02,30.22,95.29-2.09,67.82-51.91,125.12-121.84,139.08-46.75,9.33-89.93.12-128.01-29.04-8.81-6.74-17.69-10.84-28.67-12.33-25.47-3.44-49.82-10.93-72.58-23.13-3.18-1.71-6.15-3.82-9.21-4.8,22.44,6.11,44.54,14.19,67.36,17.96,76.53,12.64,141.24-10.98,192.12-69.19,0,0,25.92-23.88,38.09-57.58,4.45-12.32,2.13-14.36,1.61-14.74-2.81-2.05-10.01,3.34-14.3,6.69-25.54,19.91-36.65,41.32-61.78,56.09-11.05,6.5-23.81,10.3-36.14,14.27-3.06.99-9.14-1.07-10.72-3.64-1.45-2.37.14-8.24,2.37-10.94,7.17-8.67,12.76-13.63,24.31-26.73,2.5-2.84,4.83-5.69,3.93-7.66-1.21-2.66-7.58-2.15-9.24-2.01-10.58.86-18.14,7.33-19.82,8.47-11.38,7.72-23.64,15.14-32.59,25.28-26.16,29.66-60.48,39.58-97.57,43.88-14.32,1.66-28.74,2.39-43.48,1.25,13.83-3.46,27.61-7.17,41.51-10.29,9.36-2.1,12.37-5.74,9.91-16.27-8.14-34.83-1.67-68.35,15.83-98.85,18.5-32.25,39.48-63.08,59.25-94.61C156.12,81.94,181.44,41.3,207.25,0c7.57,13.33,15.28,27.66,23.71,41.56,13.76,22.7,27.71,45.29,42.33,67.44,2.12,3.22,8.53,5.46,12.74,5.16,42.28-3.04,82.53,3.61,120.25,23.52,3.34,1.76,6.61,3.64,9.71,6.04-25.87-10.56-52.53-17.38-80.48-18.17-86.2-2.43-150.82,34.47-194.87,107.9,0,0-12.36,14.69-19.04,40.11-1.07,4.06-2.16,9.43.18,11.11,2.87,2.07,9.45-2.52,12.11-4.41,12.6-8.96,16-21.58,23.38-28.91,14.61-14.5,29.92-28.46,46.1-41.16,6.99-5.49,16.7-7.9,25.54-10.43,3.26-.93,9.14.69,10.94,3.21,1.57,2.2.22,8.09-1.8,10.96-7.11,10.09-12.2,13.93-20.93,26.87-5.14,7.62-4.73,9.57-4.14,10.41,1.8,2.55,9.13.24,11.61-.54,20.33-6.41,40.95-30.31,43.74-33.86,29.36-37.44,69.83-49.61,113.47-56.82,7.99-1.32,16.08-2.07,24.12-3.08,0,.27,0,.54,0,.81Z"/>
  </g>
</svg>