<svg width="1942" height="453" viewBox="0 0 1942 453" fill="none" xmlns="http://www.w3.org/2000/svg">
<g clip-path="url(#clip0_3098_27201)">
<path d="M405.91 167.29C378.77 175.53 351.62 183.78 322.59 192.6C326.14 198.75 328.1 202.18 330.1 205.59C347.36 235.08 361.4 265.61 360.32 300.88C358.23 368.7 308.41 426 238.48 439.96C191.73 449.29 148.55 440.08 110.47 410.92C101.66 404.18 92.78 400.08 81.8 398.59C56.33 395.15 31.98 387.66 9.22 375.46C6.04 373.75 3.07 371.64 0.0100021 370.66C22.45 376.77 44.55 384.85 67.37 388.62C143.9 401.26 208.61 377.64 259.49 319.43C259.49 319.43 285.41 295.55 297.58 261.85C302.03 249.53 299.71 247.49 299.19 247.11C296.38 245.06 289.18 250.45 284.89 253.8C259.35 273.71 248.24 295.12 223.11 309.89C212.06 316.39 199.3 320.19 186.97 324.16C183.91 325.15 177.83 323.09 176.25 320.52C174.8 318.15 176.39 312.28 178.62 309.58C185.79 300.91 191.38 295.95 202.93 282.85C205.43 280.01 207.76 277.16 206.86 275.19C205.65 272.53 199.28 273.04 197.62 273.18C187.04 274.04 179.48 280.51 177.8 281.65C166.42 289.37 154.16 296.79 145.21 306.93C119.05 336.59 84.73 346.51 47.64 350.81C33.32 352.47 18.9 353.2 4.16 352.06C17.99 348.6 31.77 344.89 45.67 341.77C55.03 339.67 58.04 336.03 55.58 325.5C47.44 290.67 53.91 257.15 71.41 226.65C89.91 194.4 110.89 163.57 130.66 132.04C156.12 91.49 181.44 50.85 207.25 9.55005C214.82 22.88 222.53 37.2101 230.96 51.1101C244.72 73.8101 258.67 96.4 273.29 118.55C275.41 121.77 281.82 124.01 286.03 123.71C328.31 120.67 368.56 127.32 406.28 147.23C409.62 148.99 412.89 150.87 415.99 153.27C390.12 142.71 363.46 135.89 335.51 135.1C249.31 132.67 184.69 169.57 140.64 243C140.64 243 128.28 257.69 121.6 283.11C120.53 287.17 119.44 292.54 121.78 294.22C124.65 296.29 131.23 291.7 133.89 289.81C146.49 280.85 149.89 268.23 157.27 260.9C171.88 246.4 187.19 232.44 203.37 219.74C210.36 214.25 220.07 211.84 228.91 209.31C232.17 208.38 238.05 210 239.85 212.52C241.42 214.72 240.07 220.61 238.05 223.48C230.94 233.57 225.85 237.41 217.12 250.35C211.98 257.97 212.39 259.92 212.98 260.76C214.78 263.31 222.11 261 224.59 260.22C244.92 253.81 265.54 229.91 268.33 226.36C297.69 188.92 338.16 176.75 381.8 169.54C389.79 168.22 397.88 167.47 405.92 166.46C405.92 166.73 405.92 167 405.92 167.27L405.91 167.29Z" fill="#FFCF02"/>
</g>
<path d="M649.973 365.635C573.028 365.635 524.452 312.609 524.452 227.136V226.95C524.452 141.478 573.214 88.822 649.973 88.822C711.528 88.822 756.767 127.201 763.813 181.711L763.998 183.565H717.09L716.163 180.042C708.376 149.45 684.829 130.353 649.973 130.353C603.25 130.353 573.399 167.62 573.399 226.95V227.136C573.399 286.652 603.435 324.104 649.973 324.104C684.088 324.104 708.005 305.749 716.719 272.746L717.275 270.892H764.183L763.813 272.746C756.953 327.627 711.528 365.635 649.973 365.635ZM853.179 364.337C813.873 364.337 787.359 340.049 787.359 305.007V304.636C787.359 269.78 814.429 248.829 862.079 245.862L913.436 242.71V229.175C913.436 209.337 900.458 197.285 877.097 197.285C855.219 197.285 841.869 207.483 838.903 221.944L838.532 223.613H795.703L795.888 221.388C798.669 186.532 828.891 160.389 878.765 160.389C927.898 160.389 959.603 186.346 959.603 225.838V361H913.436V330.779H912.324C901.014 351.359 879.136 364.337 853.179 364.337ZM833.34 303.153C833.34 319.283 846.69 329.11 866.899 329.11C893.412 329.11 913.436 311.496 913.436 288.135V273.302L868.568 276.083C845.763 277.567 833.34 287.393 833.34 302.967V303.153ZM996.87 361V164.468H1043.04V198.398H1043.96C1050.08 174.666 1066.4 160.389 1089.02 160.389C1094.76 160.389 1100.14 161.316 1103.66 162.243V203.96C1099.77 202.477 1092.73 201.364 1084.94 201.364C1058.8 201.364 1043.04 217.866 1043.04 246.974V361H996.87ZM1206.38 364.894C1147.42 364.894 1111.82 325.773 1111.82 263.29V263.105C1111.82 201.179 1147.98 160.389 1204.16 160.389C1260.33 160.389 1295.19 199.881 1295.19 259.211V274.044H1157.62C1158.36 308.53 1177.27 328.925 1207.31 328.925C1230.3 328.925 1245.32 316.688 1249.77 303.524L1250.14 302.226H1293.34L1292.78 304.265C1286.66 334.487 1257.74 364.894 1206.38 364.894ZM1204.71 196.544C1180.24 196.544 1161.88 213.045 1158.17 243.266H1250.32C1246.98 212.118 1229.19 196.544 1204.71 196.544ZM1337.83 361V200.066H1310.95V164.468H1337.83V145.742C1337.83 107.363 1356 89.5636 1398.65 89.5636C1407.73 89.5636 1417.56 90.3052 1423.31 91.4177V123.679C1419.6 123.122 1414.41 122.752 1409.4 122.752C1391.42 122.752 1383.07 131.095 1383.07 147.04V164.468H1422.57V200.066H1384V361H1337.83ZM1500.25 364.337C1460.94 364.337 1434.43 340.049 1434.43 305.007V304.636C1434.43 269.78 1461.5 248.829 1509.15 245.862L1560.51 242.71V229.175C1560.51 209.337 1547.53 197.285 1524.17 197.285C1502.29 197.285 1488.94 207.483 1485.97 221.944L1485.6 223.613H1442.77L1442.96 221.388C1445.74 186.532 1475.96 160.389 1525.84 160.389C1574.97 160.389 1606.67 186.346 1606.67 225.838V361H1560.51V330.779H1559.4C1548.09 351.359 1526.21 364.337 1500.25 364.337ZM1480.41 303.153C1480.41 319.283 1493.76 329.11 1513.97 329.11C1540.48 329.11 1560.51 311.496 1560.51 288.135V273.302L1515.64 276.083C1492.83 277.567 1480.41 287.393 1480.41 302.967V303.153ZM1720.7 364.894C1669.16 364.894 1639.68 340.42 1635.6 303.895L1635.41 302.226H1680.84L1681.21 303.895C1684.73 320.767 1697.52 330.779 1720.89 330.779C1743.32 330.779 1756.85 321.694 1756.85 307.232V307.046C1756.85 295.18 1749.99 288.506 1729.6 283.871L1696.97 276.64C1659.33 268.296 1640.42 249.941 1640.42 220.832V220.647C1640.42 184.678 1671.75 160.389 1719.22 160.389C1768.16 160.389 1796.72 187.273 1798.39 221.203L1798.57 223.242H1755.56L1755.37 221.759C1753.33 205.999 1740.72 194.504 1719.22 194.504C1698.82 194.504 1686.03 203.96 1686.03 218.422V218.607C1686.03 229.917 1693.63 237.333 1714.03 241.968L1746.84 249.199C1787.45 258.284 1803.21 274.229 1803.21 302.782V302.967C1803.21 340.049 1768.91 364.894 1720.7 364.894ZM1905.74 364.894C1864.58 364.894 1845.11 348.207 1845.11 307.788V200.066H1817.3V164.468H1845.11V114.594H1892.02V164.468H1928.54V200.066H1892.02V303.895C1892.02 323.177 1900.55 329.295 1917.42 329.295C1921.87 329.295 1925.39 328.739 1928.54 328.554V363.225C1923.17 363.967 1915.01 364.894 1905.74 364.894Z" fill="#FFCF02"/>
<defs>
<clipPath id="clip0_3098_27201">
<rect width="415.99" height="433.9" fill="white" transform="translate(0 9.55005)"/>
</clipPath>
</defs>
</svg>
